<svg xmlns="http://www.w3.org/2000/svg" width="25" height="24" viewBox="0 0 25 24" fill="none">
  <g clip-path="url(#clip0_139_560)">
    <path d="M19.3054 3.41708C19.9728 3.69364 20.5792 4.099 21.09 4.60999C21.601 5.12075 22.0063 5.72718 22.2829 6.39464C22.5595 7.0621 22.7018 7.77751 22.7018 8.49999C22.7018 9.22248 22.5595 9.93789 22.2829 10.6053C22.0063 11.2728 21.601 11.8792 21.09 12.39L20.03 13.45L12.25 21.23L4.47 13.45L3.41 12.39C2.3783 11.3583 1.79871 9.95903 1.79871 8.49999C1.79871 7.04096 2.3783 5.64169 3.41 4.60999C4.44169 3.5783 5.84096 2.9987 7.3 2.9987C8.75903 2.9987 10.1583 3.5783 11.19 4.60999L12.25 5.66999L13.31 4.60999C13.8208 4.099 14.4272 3.69364 15.0946 3.41708C15.7621 3.14052 16.4775 2.99817 17.2 2.99817C17.9225 2.99817 18.6379 3.14052 19.3054 3.41708Z" stroke="#8E9090" stroke-width="2" stroke-linecap="round" stroke-linejoin="round"/>
  </g>
  <defs>
    <clipPath id="clip0_139_560">
      <rect width="24" height="24" fill="white" transform="translate(0.25)"/>
    </clipPath>
  </defs>
</svg>